<?xml version="1.0" encoding="UTF-8" standalone="no"?>
<!-- Created with Inkscape (http://www.inkscape.org/) -->

<svg
   xmlns:dc="http://purl.org/dc/elements/1.1/"
   xmlns:cc="http://creativecommons.org/ns#"
   xmlns:rdf="http://www.w3.org/1999/02/22-rdf-syntax-ns#"
   xmlns:svg="http://www.w3.org/2000/svg"
   xmlns="http://www.w3.org/2000/svg"
   xmlns:sodipodi="http://sodipodi.sourceforge.net/DTD/sodipodi-0.dtd"
   xmlns:inkscape="http://www.inkscape.org/namespaces/inkscape"
   width="335.05258"
   height="130.49062"
   id="svg15393"
   version="1.1"
   inkscape:version="0.47 r22583"
   sodipodi:docname="NDTV_247.svg">
  <defs
     id="defs15395">
    <inkscape:perspective
       sodipodi:type="inkscape:persp3d"
       inkscape:vp_x="0 : 526.18109 : 1"
       inkscape:vp_y="0 : 1000 : 0"
       inkscape:vp_z="744.09448 : 526.18109 : 1"
       inkscape:persp3d-origin="372.04724 : 350.78739 : 1"
       id="perspective15401" />
    <inkscape:perspective
       id="perspective15368"
       inkscape:persp3d-origin="0.5 : 0.33333333 : 1"
       inkscape:vp_z="1 : 0.5 : 1"
       inkscape:vp_y="0 : 1000 : 0"
       inkscape:vp_x="0 : 0.5 : 1"
       sodipodi:type="inkscape:persp3d" />
    <clipPath
       clipPathUnits="userSpaceOnUse"
       id="clipPath8800">
      <path
         d="m 341.173,805.684 11.606,0 c 0.795,0 1.44,-0.645 1.44,-1.44 l 0,-9.637 c 0,-0.795 -0.645,-1.44 -1.44,-1.44 l -23.213,0 c -0.795,0 -1.44,0.645 -1.44,1.44 l 0,9.637 c 0,0.795 0.645,1.44 1.44,1.44"
         clip-rule="evenodd"
         id="path8802" />
    </clipPath>
    <clipPath
       clipPathUnits="userSpaceOnUse"
       id="clipPath8808">
      <path
         d="m 0,0.030029 792,0 0,1223.999971 -792,0 L 0,0.030029 z"
         id="path8810" />
    </clipPath>
    <clipPath
       clipPathUnits="userSpaceOnUse"
       id="clipPath8816">
      <path
         d="m 341.173,805.684 11.606,0 c 0.795,0 1.44,-0.645 1.44,-1.44 l 0,-9.637 c 0,-0.795 -0.645,-1.44 -1.44,-1.44 l -23.213,0 c -0.795,0 -1.44,0.645 -1.44,1.44 l 0,9.637 c 0,0.795 0.645,1.44 1.44,1.44"
         clip-rule="evenodd"
         id="path8818" />
    </clipPath>
    <clipPath
       clipPathUnits="userSpaceOnUse"
       id="clipPath8826">
      <path
         d="m -17.9997,-110.797 42.9452,0 0,170.4133 -42.9452,0 0,-170.4133 z"
         id="path8828" />
    </clipPath>
  </defs>
  <sodipodi:namedview
     id="base"
     pagecolor="#ffffff"
     bordercolor="#666666"
     borderopacity="1.0"
     inkscape:pageopacity="0.0"
     inkscape:pageshadow="2"
     inkscape:zoom="1"
     inkscape:cx="142.322"
     inkscape:cy="52.002101"
     inkscape:document-units="px"
     inkscape:current-layer="g8824"
     showgrid="false"
     inkscape:window-width="1280"
     inkscape:window-height="962"
     inkscape:window-x="-8"
     inkscape:window-y="-8"
     inkscape:window-maximized="1" />
  <metadata
     id="metadata15398">
    <rdf:RDF>
      <cc:Work
         rdf:about="">
        <dc:format>image/svg+xml</dc:format>
        <dc:type
           rdf:resource="http://purl.org/dc/dcmitype/StillImage" />
        <dc:title></dc:title>
      </cc:Work>
    </rdf:RDF>
  </metadata>
  <g
     inkscape:label="Layer 1"
     inkscape:groupmode="layer"
     id="layer1"
     transform="translate(-209.47383,-453.87367)">
    <g
       transform="matrix(18.167855,0,0,-18.167855,-5821.3828,15042.961)"
       id="g8798"
       clip-path="url(#clipPath8800)">
      <g
         id="g8804">
        <g
           id="g8806"
           clip-path="url(#clipPath8808)">
          <g
             id="g8812">
            <g
               id="g8814"
               clip-path="url(#clipPath8816)">
              <g
                 id="g8822"
                 transform="matrix(18.4421,0,0,7.1825,331.952,795.834)">
                <g
                   clip-path="url(#clipPath8826)"
                   id="g8824">
                  <path
                     id="path8830"
                     style="fill:#828385;fill-opacity:1;fill-rule:evenodd;stroke:none"
                     d="m 0.62852,0.32156 0.03918,0.12775 0.06854,0 L 0.66241,0.22444 0.73624,0 0.67036,0 0.62852,0.12029 0.58775,0 0.51921,0 0.59474,0.22444 0.52008,0.44931 l 0.06938,0 0.03906,-0.12775" />
                  <path
                     id="path8832"
                     style="fill:#231f20;fill-opacity:1;fill-rule:evenodd;stroke:none"
                     d="m 0.73712,0.44931 0,0.15345 L 1,0.60276 1,0.45951 0.84437,0 0.75738,0 0.9077,0.44931 l -0.17058,0" />
                  <path
                     id="path8834"
                     style="fill:#231f20;fill-opacity:1;fill-rule:evenodd;stroke:none"
                     d="m 0.47222,0.77378 c 0,-0.01849 -0.00641,-0.04157 -0.01614,-0.04157 -0.00972,0 -0.07764,0 -0.07764,0 l 0,0.18248 c 0,0 0.06445,0 0.07632,0 0.01189,0 0.01746,-0.0263 0.01746,-0.04716 l 0,-0.09375 z M 0.81441,1 0.76133,0.74106 0.7046,1 0.33598,1 l 0,-0.11279 c 0,0 0,-0.08424 0,-0.12759 0,-0.03927 0,-0.11133 0,-0.11133 0,0 0.10733,0 0.12428,0 0.01704,0 0.02933,0.01186 0.0408,0.04573 0.01143,0.03391 0.01398,0.07749 0.01398,0.10165 0,0.02415 -7.7e-4,0.11216 -0.00344,0.11902 0.00852,0 0.06442,0 0.06442,0 l 0,-0.2664 0.04326,0 0,0.2664 0.05644,0 0.06028,-0.2664 0.05208,0 L 0.85936,1 0.81441,1 z M 0.27927,0.7497 C 0.26226,0.7497 0.25551,0.81308 0.23891,0.89712 0.22232,0.98108 0.20159,1 0.18549,1 0.16936,1 0.13925,1 0.13925,1 l 0,-0.35171 0.04368,0 c 0,0 0,0.19973 0,0.24776 C 0.19697,0.91461 0.21266,0.79999 0.22532,0.7378 0.23807,0.6755 0.25967,0.64829 0.27329,0.64829 c 0.01352,0 0.04936,0 0.04936,0 L 0.32265,1 0.27927,1 c 0,0 0,-0.18692 0,-0.2503" />
                  <path
                     id="path8836"
                     style="fill:#231f20;fill-opacity:1;fill-rule:evenodd;stroke:none"
                     d="m 0.45147,0.252 -0.1283,0 0.1283,0.19838 0,-0.19838 z m -0.18014,-0.11585 -0.202797,0 c 0,0 -0.008152,0.05656 0.023422,0.06326 C 0.1236,0.20607 0.20796,0.21301 0.22995,0.22662 0.252,0.2403 0.26243,0.25129 0.27133,0.29218 l 0,-0.15603 z M 0.5178,0.252 l 0,0.35076 -0.08125,0 L 0.277,0.34865 c 0,0 0,0.08154 0,0.11534 0,0.11997 -0.04001,0.13877 -0.05672,0.13877 l -0.131831,0 C -0.00648,0.60276 1e-4,0.48897 1e-4,0.45038 c 0,-0.03827 0,-0.07456 0,-0.07456 l 0.068433,0 c 0,0 0,0.01587 0,0.03855 0,0.06108 0.010262,0.04962 0.023422,0.05421 0.013235,0.00445 0.084435,0.00235 0.099345,0.00235 0.01491,0 0.02024,-0.01142 0.02024,-0.04982 0,-0.03839 0,-0.05215 -0.01758,-0.06116 C 0.17639,0.35091 0.0867,0.33743 0.055057,0.32605 0.023415,0.3147 1e-4,0.26283 1e-4,0.17681 1e-4,0.090899 1e-4,0 1e-4,0 l 0.28173,0 0,0.11243 0.17226,0 0,-0.11243 0.06371,0 0,0.11243 0.0383,0 0,0.13957 -0.0383,0" />
                  <path
                     id="path8838"
                     style="fill:#ed1c24;fill-opacity:1;fill-rule:evenodd;stroke:none"
                     d="m 0.3552,0.82331 c 0,-0.03649 -0.01152,-0.06604 -0.0257,-0.06604 -0.01421,0 -0.02565,0.02955 -0.02565,0.06604 0,0.03653 0.01144,0.06604 0.02565,0.06604 0.01418,0 0.0257,-0.02951 0.0257,-0.06604" />
                </g>
              </g>
            </g>
          </g>
        </g>
      </g>
    </g>
  </g>
</svg>
